# Blender v2.90.1 OBJ File: 'Map.blend'
# www.blender.org
mtllib Wall_OutBackLeft02.mtl
o Wall_OutBackLeft02_Cube.032
v 0.000000 0.130960 38.399632
v 0.000000 8.130093 38.399632
v 0.000000 0.130960 48.894482
v 0.000000 8.130093 48.894482
v -39.270836 0.130960 38.399632
v -39.270836 8.130093 48.894482
v -39.270836 8.130093 38.399632
v -39.270836 0.130960 48.894482
vt 0.005185 0.750000
vt 0.005185 0.500000
vt 0.010371 0.500000
vt 0.010371 0.750000
vt 0.582927 -0.000000
vt 0.582927 1.000000
vt 0.459765 1.000000
vt 0.459765 -0.000000
vt 0.015084 0.750000
vt 0.984765 -0.000000
vt 0.969854 0.000000
vt 0.984765 1.000000
vt 0.969854 1.000000
vt 0.015084 0.500000
vn 0.0000 -1.0000 0.0000
vn 0.0000 0.0000 -1.0000
vn -1.0000 0.0000 0.0000
vn 0.0000 1.0000 0.0000
vn 0.0000 0.0000 1.0000
usemtl Facades01
s off
f 5/1/1 1/2/1 3/3/1 8/4/1
f 5/5/2 7/6/2 2/7/2 1/8/2
f 5/1/3 8/4/3 6/9/3 7/10/3
f 2/11/4 7/10/4 6/12/4 4/13/4
f 3/3/5 4/14/5 6/9/5 8/4/5
