# Blender v2.90.1 OBJ File: 'Map.blend'
# www.blender.org
mtllib Wall_OutFrontRight02.mtl
o Wall_OutFrontRight02_Cube.027
v 78.541672 0.130960 -35.181171
v 78.541672 8.130093 -35.181171
v 78.541672 0.130960 -45.676022
v 78.541672 8.130093 -45.676022
v 39.270836 8.130093 -45.676022
v 39.270836 0.130960 -35.181171
v 39.270836 0.130960 -45.676022
v 39.270836 8.130093 -35.181171
vt 0.105799 0.000000
vt 0.105799 1.000000
vt 0.000025 1.000000
vt 0.000025 0.000000
vt 0.047992 -0.000000
vt 0.047992 1.000000
vt 0.016119 1.000000
vt 0.016119 0.000000
vt 0.005185 0.250000
vt 0.005185 0.000000
vt 0.010371 0.000000
vt 0.010371 0.250000
vt 0.750390 -0.000000
vt 0.750390 1.000000
vt 0.640599 1.000000
vt 0.640599 -0.000000
vt 0.939506 0.000000
vt 0.954569 0.000000
vt 0.954569 1.000000
vt 0.939506 1.000000
vn 0.0000 0.0000 -1.0000
vn 1.0000 0.0000 0.0000
vn 0.0000 -1.0000 0.0000
vn 0.0000 0.0000 1.0000
vn 0.0000 1.0000 0.0000
vn -1.0000 0.0000 0.0000
usemtl Facades02
s off
f 7/1/1 5/2/1 4/3/1 3/4/1
f 3/5/2 4/6/2 2/7/2 1/8/2
f 7/9/3 3/10/3 1/11/3 6/12/3
f 1/13/4 2/14/4 8/15/4 6/16/4
f 4/17/5 5/18/5 8/19/5 2/20/5
f 6/12/6 8/19/6 5/2/6 7/9/6
