# Blender v2.90.1 OBJ File: 'Map.blend'
# www.blender.org
mtllib Wall_OutFrontRight01.mtl
o Wall_OutFrontRight01_Cube.029
v 0.000000 0.130960 -45.676022
v 0.000000 8.130093 -45.676022
v 0.000000 0.130960 -35.181171
v 0.000000 8.130093 -35.181171
v 39.270836 8.130093 -45.676022
v 39.270836 0.130960 -35.181171
v 39.270836 0.130960 -45.676022
v 39.270836 8.130093 -35.181171
vt 0.954569 0.000000
vt 0.969633 0.000000
vt 0.969633 1.000000
vt 0.954569 1.000000
vt 0.640599 -0.000000
vt 0.640599 1.000000
vt 0.530809 1.000000
vt 0.530809 0.000000
vt 0.211574 1.000000
vt 0.005185 0.500000
vt 0.005185 0.250000
vt 0.010371 0.250000
vt 0.010371 0.500000
vt 0.211574 0.000000
vt 0.105799 1.000000
vt 0.105799 0.000000
vn 0.0000 1.0000 0.0000
vn 0.0000 0.0000 1.0000
vn -1.0000 0.0000 0.0000
vn 0.0000 -1.0000 0.0000
vn 0.0000 0.0000 -1.0000
vn 1.0000 0.0000 0.0000
usemtl Facades02
s off
f 5/1/1 2/2/1 4/3/1 8/4/1
f 6/5/2 8/6/2 4/7/2 3/8/2
f 4/7/3 2/9/3 1/10/3 3/8/3
f 1/10/4 7/11/4 6/12/4 3/13/4
f 1/14/5 2/9/5 5/15/5 7/16/5
f 6/12/6 7/11/6 5/15/6 8/4/6
