# Blender v2.90.1 OBJ File: 'Map.blend'
# www.blender.org
mtllib Wall_OutBackRight01.mtl
o Wall_OutBackRight01_Cube.034
v 0.000000 0.130960 38.399632
v 0.000000 8.130093 38.399632
v 0.000000 0.130960 48.894482
v 0.000000 8.130093 48.894482
v 39.270836 8.130093 38.399632
v 39.270836 0.130960 48.894482
v 39.270836 0.130960 38.399632
v 39.270836 8.130093 48.894482
vt 0.954943 0.000000
vt 0.969854 0.000000
vt 0.969854 1.000000
vt 0.954943 1.000000
vt 0.010371 0.250000
vt 0.015084 0.250000
vt 0.015084 0.500000
vt 0.010371 0.500000
vt 0.459765 1.000000
vt 0.005185 0.500000
vt 0.005185 0.250000
vt 0.459765 -0.000000
vt 0.336603 1.000000
vt 0.336603 0.000000
vn 0.0000 1.0000 0.0000
vn 0.0000 0.0000 1.0000
vn -1.0000 0.0000 0.0000
vn 0.0000 -1.0000 0.0000
vn 0.0000 0.0000 -1.0000
vn 1.0000 0.0000 0.0000
usemtl Facades01
s off
f 5/1/1 2/2/1 4/3/1 8/4/1
f 6/5/2 8/6/2 4/7/2 3/8/2
f 4/7/3 2/9/3 1/10/3 3/8/3
f 1/10/4 7/11/4 6/5/4 3/8/4
f 1/12/5 2/9/5 5/13/5 7/14/5
f 6/5/6 7/11/6 5/13/6 8/4/6
