# Blender v2.90.1 OBJ File: 'Map.blend'
# www.blender.org
mtllib Wall_OutLeft.mtl
o Wall_OutLeft_Cube.002
v -71.910576 0.130960 42.374348
v -71.910576 8.130093 42.374348
v -82.405426 0.130960 42.374348
v -82.405426 8.130093 42.374348
v -71.910583 0.130960 -39.155888
v -71.910583 8.130093 -39.155888
v -82.405434 0.130960 -39.155888
v -82.405434 8.130093 -39.155888
vt 0.019797 0.128723
vt 0.024510 0.128723
vt 0.024510 0.257447
vt 0.019797 0.257447
vt 0.015084 1.000000
vt 0.010371 1.000000
vt 0.010371 0.000000
vt 0.015084 0.000000
vt 0.024510 0.128723
vt 0.019797 0.128723
vt 0.019797 0.000000
vt 0.024510 0.000000
vt 0.917480 -0.000000
vt 0.917480 1.000000
vt 0.672544 1.000000
vt 0.672544 0.000000
vt 0.005185 1.000000
vt 0.005185 0.000000
vt 0.010371 0.000000
vt 0.010371 1.000000
vt 0.999866 1.000000
vt 0.939970 1.000000
vt 0.939970 0.000000
vt 0.999866 -0.000000
vn 0.0000 0.0000 1.0000
vn -1.0000 0.0000 0.0000
vn 0.0000 0.0000 -1.0000
vn 1.0000 0.0000 -0.0000
vn 0.0000 -1.0000 -0.0000
vn 0.0000 1.0000 0.0000
usemtl Facades01
s off
f 1/1/1 2/2/1 4/3/1 3/4/1
f 3/5/2 4/6/2 8/7/2 7/8/2
f 7/9/3 8/10/3 6/11/3 5/12/3
f 5/13/4 6/14/4 2/15/4 1/16/4
f 3/17/5 7/18/5 5/19/5 1/20/5
f 8/21/6 4/22/6 2/23/6 6/24/6
