# Blender v2.90.1 OBJ File: 'Map.blend'
# www.blender.org
mtllib L_HortBackLeft.mtl
o L_HortBackLeft_Cube.015
v -59.925449 0.130960 31.259928
v -59.925449 8.130093 31.259928
v -59.925449 0.130960 22.864048
v -59.925449 8.130093 22.864048
v -51.288525 0.130960 31.259918
v -51.288525 8.130093 31.259918
v -51.288525 0.130960 22.864038
v -51.288525 8.130093 22.864038
vt 1.260407 -0.000000
vt 1.260407 1.000000
vt 0.000642 1.000000
vt 0.000642 0.000000
vt 0.934934 -0.000000
vt 0.934934 1.000000
vt -0.042726 1.000000
vt -0.042727 0.000000
vt 1.052948 -0.000000
vt 1.052948 1.000000
vt -0.077911 1.000000
vt -0.077911 0.000000
vt 1.000000 0.000000
vt 1.000000 1.000000
vt -0.001098 1.000000
vt -0.001098 0.000000
vt 0.623289 0.999999
vt 0.311645 1.000000
vt 0.311645 0.500000
vt 0.623289 0.500000
vt 1.171339 0.000000
vt 1.171338 1.000000
vt -0.025276 1.000000
vt -0.025275 0.000000
vn -1.0000 0.0000 0.0000
vn -0.0000 0.0000 -1.0000
vn 1.0000 0.0000 0.0000
vn 0.0000 0.0000 1.0000
vn 0.0000 -1.0000 0.0000
vn 0.0000 1.0000 0.0000
usemtl Wall06
s off
f 1/1/1 2/2/1 4/3/1 3/4/1
f 3/5/2 4/6/2 8/7/2 7/8/2
f 7/9/3 8/10/3 6/11/3 5/12/3
f 5/13/4 6/14/4 2/15/4 1/16/4
f 3/17/5 7/18/5 5/19/5 1/20/5
f 8/21/6 4/22/6 2/23/6 6/24/6
