# Blender v2.90.1 OBJ File: 'Map.blend'
# www.blender.org
mtllib Small_BackRight.mtl
o Small_BackRight_Cube.021
v 34.886848 0.130960 15.102448
v 34.886848 8.130093 15.102448
v 34.886848 0.130960 4.607598
v 34.886848 8.130093 4.607598
v 45.996033 0.130960 15.102437
v 45.996033 8.130093 15.102437
v 45.996033 0.130960 4.607587
v 45.996033 8.130093 4.607587
vt 0.177903 0.000000
vt 0.177903 1.000000
vt 0.149109 1.000000
vt 0.149109 0.000000
vt 0.221125 0.000000
vt 0.221125 1.000000
vt 0.192060 1.000000
vt 0.192060 0.000000
vt 0.178075 0.000000
vt 0.178075 1.000000
vt 0.149131 1.000000
vt 0.149131 0.000000
vt 0.206184 -0.000000
vt 0.206184 1.000000
vt 0.177767 1.000000
vt 0.177767 0.000000
vt 0.008426 0.500000
vt 0.008426 0.000000
vt 0.016852 0.000000
vt 0.016852 0.500000
vt 0.956750 0.000000
vt 0.985130 -0.000000
vt 0.985130 1.000000
vt 0.956750 1.000000
vn -1.0000 0.0000 0.0000
vn -0.0000 0.0000 -1.0000
vn 1.0000 0.0000 0.0000
vn 0.0000 0.0000 1.0000
vn 0.0000 -1.0000 0.0000
vn 0.0000 1.0000 0.0000
usemtl Facades01
s off
f 1/1/1 2/2/1 4/3/1 3/4/1
f 3/5/2 4/6/2 8/7/2 7/8/2
f 7/9/3 8/10/3 6/11/3 5/12/3
f 5/13/4 6/14/4 2/15/4 1/16/4
f 3/17/5 7/18/5 5/19/5 1/20/5
f 8/21/6 4/22/6 2/23/6 6/24/6
