# Blender v2.90.1 OBJ File: 'Map.blend'
# www.blender.org
mtllib Square_FrontRight.mtl
o Square_FrontRight_Cube.025
v 10.753351 0.130960 -1.689098
v 10.753351 8.130093 -1.689098
v 10.753351 0.130960 -12.183948
v 10.753351 8.130093 -12.183948
v 19.577732 0.130960 -1.689109
v 19.577732 8.130093 -1.689109
v 19.577732 0.130960 -12.183958
v 19.577732 8.130093 -12.183958
vt 0.762020 0.000000
vt 0.762020 1.000000
vt 0.728890 1.000000
vt 0.728890 0.000000
vt 0.729013 -0.000000
vt 0.729013 1.000000
vt 0.712079 1.000000
vt 0.712079 0.000000
vt 0.411511 -0.000000
vt 0.411511 1.000000
vt 0.384005 1.000000
vt 0.384005 0.000000
vt 0.048183 -0.000000
vt 0.048183 1.000000
vt 0.027708 1.000000
vt 0.027708 0.000000
vt 0.729539 0.999999
vt 0.721787 1.000000
vt 0.721787 0.500000
vt 0.729539 0.500000
vt 0.999618 1.000000
vt 0.974808 0.999999
vt 0.974808 -0.000000
vt 0.999618 0.000000
vn -1.0000 0.0000 0.0000
vn -0.0000 0.0000 -1.0000
vn 1.0000 0.0000 0.0000
vn 0.0000 0.0000 1.0000
vn 0.0000 -1.0000 0.0000
vn 0.0000 1.0000 0.0000
usemtl Facades01
s off
f 1/1/1 2/2/1 4/3/1 3/4/1
f 3/5/2 4/6/2 8/7/2 7/8/2
f 7/9/3 8/10/3 6/11/3 5/12/3
f 5/13/4 6/14/4 2/15/4 1/16/4
f 3/17/5 7/18/5 5/19/5 1/20/5
f 8/21/6 4/22/6 2/23/6 6/24/6
