# Blender v2.90.1 OBJ File: 'Map.blend'
# www.blender.org
mtllib Wall_InBackRight.mtl
o Wall_InBackRight_Cube.006
v 41.697948 0.130960 42.466217
v 41.697948 8.130093 42.466217
v 31.203098 0.130960 42.466217
v 31.203098 8.130093 42.466217
v 41.697933 0.130960 25.671387
v 41.697933 8.130093 25.671387
v 31.203083 0.130960 25.671387
v 31.203083 8.130093 25.671387
vt 0.009194 0.500000
vt 0.016852 0.500000
vt 0.016852 0.812443
vt 0.009194 0.812443
vt 0.436537 -0.000000
vt 0.436537 1.000000
vt 0.381868 1.000000
vt 0.381868 0.000000
vt 0.347526 1.000000
vt 0.347526 0.000000
vt 0.347243 -0.000000
vt 0.347243 1.000000
vt 0.298187 1.000000
vt 0.298187 0.000000
vt 0.008426 0.500000
vt 0.008426 0.000000
vt 0.016852 0.000000
vt 0.016852 0.500000
vt 0.997265 1.000000
vt 0.969442 1.000000
vt 0.969442 -0.000000
vt 0.997265 0.000000
vn 0.0000 0.0000 1.0000
vn -1.0000 0.0000 0.0000
vn 0.0000 0.0000 -1.0000
vn 1.0000 0.0000 -0.0000
vn 0.0000 -1.0000 0.0000
vn 0.0000 1.0000 0.0000
usemtl Facades01
s off
f 1/1/1 2/2/1 4/3/1 3/4/1
f 3/5/2 4/6/2 8/7/2 7/8/2
f 7/8/3 8/7/3 6/9/3 5/10/3
f 5/11/4 6/12/4 2/13/4 1/14/4
f 3/15/5 7/16/5 5/17/5 1/18/5
f 8/19/6 4/20/6 2/21/6 6/22/6
