# Blender v2.90.1 OBJ File: 'Map.blend'
# www.blender.org
mtllib Wall_OutBackLeft01.mtl
o Wall_OutBackLeft01_Cube.033
v -78.541672 0.130960 48.894482
v -78.541672 8.130093 48.894482
v -78.541672 0.130960 38.399632
v -78.541672 8.130093 38.399632
v -39.270836 0.130960 38.399632
v -39.270836 8.130093 48.894482
v -39.270836 8.130093 38.399632
v -39.270836 0.130960 48.894482
vt 0.024510 0.066811
vt 0.019797 0.066811
vt 0.019797 0.000000
vt 0.024510 0.000000
vt 0.010371 0.750000
vt 0.015084 0.750000
vt 0.015084 1.000000
vt 0.010371 1.000000
vt 0.984765 -0.000000
vt 0.999676 -0.000000
vt 0.999676 1.000000
vt 0.984765 1.000000
vt 0.706089 -0.000000
vt 0.706089 1.000000
vt 0.582927 1.000000
vt 0.582927 -0.000000
vt 0.005185 1.000000
vt 0.005185 0.750000
vn -1.0000 0.0000 0.0000
vn 0.0000 0.0000 1.0000
vn 0.0000 1.0000 0.0000
vn 0.0000 0.0000 -1.0000
vn 0.0000 -1.0000 0.0000
vn 1.0000 0.0000 0.0000
usemtl Facades01
s off
f 1/1/1 2/2/1 4/3/1 3/4/1
f 8/5/2 6/6/2 2/7/2 1/8/2
f 7/9/3 4/10/3 2/11/3 6/12/3
f 3/13/4 4/14/4 7/15/4 5/16/4
f 3/17/5 5/18/5 8/5/5 1/8/5
f 5/18/6 7/9/6 6/6/6 8/5/6
