# Blender v2.90.1 OBJ File: 'Map.blend'
# www.blender.org
mtllib Small_FrontLeft.mtl
o Small_FrontLeft_Cube.018
v -45.996033 0.130960 -1.391269
v -45.996033 8.130093 -1.391269
v -45.996033 0.130960 -11.886119
v -45.996033 8.130093 -11.886119
v -34.886848 0.130960 -1.391280
v -34.886848 8.130093 -1.391280
v -34.886848 0.130960 -11.886129
v -34.886848 8.130093 -11.886129
vt 0.696125 0.000000
vt 0.696125 1.000000
vt 0.662085 1.000000
vt 0.662085 -0.000000
vt 0.678418 0.000000
vt 0.678418 1.000000
vt 0.711869 1.000000
vt 0.711869 0.000000
vt 0.696297 0.000000
vt 0.696297 1.000000
vt 0.662042 1.000000
vt 0.662042 0.000000
vt 0.030875 -0.000000
vt 0.030875 1.000000
vt -0.000281 1.000000
vt -0.000281 0.000000
vt 0.008426 0.500000
vt 0.008426 0.000000
vt 0.016852 0.000000
vt 0.016852 0.500000
vt 0.960127 0.000000
vt 0.993136 0.000000
vt 0.993136 1.000000
vt 0.960127 1.000000
vn -1.0000 0.0000 0.0000
vn -0.0000 0.0000 -1.0000
vn 1.0000 0.0000 0.0000
vn 0.0000 0.0000 1.0000
vn 0.0000 -1.0000 0.0000
vn 0.0000 1.0000 0.0000
usemtl Facades01
s off
f 1/1/1 2/2/1 4/3/1 3/4/1
f 3/5/2 4/6/2 8/7/2 7/8/2
f 7/9/3 8/10/3 6/11/3 5/12/3
f 5/13/4 6/14/4 2/15/4 1/16/4
f 3/17/5 7/18/5 5/19/5 1/20/5
f 8/21/6 4/22/6 2/23/6 6/24/6
