# Blender v2.90.1 OBJ File: 'Map.blend'
# www.blender.org
mtllib Wall_InFrontRight.mtl
o Wall_InFrontRight_Cube.005
v 41.697948 0.130960 -22.452934
v 41.697948 8.130093 -22.452934
v 31.203098 0.130960 -22.452934
v 31.203098 8.130093 -22.452934
v 41.697933 0.130960 -39.247765
v 41.697933 8.130093 -39.247765
v 31.203083 0.130960 -39.247765
v 31.203083 8.130093 -39.247765
vt 0.711807 0.000000
vt 0.711807 1.000000
vt 0.678271 1.000000
vt 0.678271 0.000000
vt 0.696904 -0.000000
vt 0.696904 1.000000
vt 0.650990 1.000000
vt 0.650990 0.000000
vt 0.024510 0.812443
vt 0.016852 0.812443
vt 0.016852 0.500000
vt 0.024510 0.500000
vt 0.699663 -0.000000
vt 0.699663 1.000000
vt 0.661946 1.000000
vt 0.661946 0.000000
vt 0.008426 0.500000
vt 0.008426 0.000000
vt 0.016852 0.000000
vt 0.016852 0.500000
vt 0.999798 1.000000
vt 0.957166 1.000000
vt 0.957166 -0.000000
vt 0.999798 0.000000
vn 0.0000 0.0000 1.0000
vn -1.0000 0.0000 0.0000
vn 0.0000 0.0000 -1.0000
vn 1.0000 0.0000 -0.0000
vn 0.0000 -1.0000 0.0000
vn 0.0000 1.0000 0.0000
usemtl Facades01
s off
f 1/1/1 2/2/1 4/3/1 3/4/1
f 3/5/2 4/6/2 8/7/2 7/8/2
f 7/9/3 8/10/3 6/11/3 5/12/3
f 5/13/4 6/14/4 2/15/4 1/16/4
f 3/17/5 7/18/5 5/19/5 1/20/5
f 8/21/6 4/22/6 2/23/6 6/24/6
